<svg width="401" height="90" viewBox="0 0 401 90" fill="none" xmlns="http://www.w3.org/2000/svg">
<g clip-path="url(#clip0_325_2)">
<path d="M158.126 30.0477C155.79 27.675 152.983 25.8545 149.725 24.5454C146.467 23.2568 142.881 22.6022 138.947 22.6022H116.981C116.653 22.6022 116.407 22.8681 116.407 23.175V75.4159C116.407 75.7431 116.674 75.9886 116.981 75.9886H138.947C142.922 75.9886 146.528 75.3341 149.766 74.0454C153.003 72.7568 155.79 70.9159 158.126 68.5431C160.462 66.1704 162.286 63.3681 163.556 60.1159C164.826 56.8636 165.462 53.2431 165.462 49.275C165.462 45.3068 164.826 41.7681 163.556 38.475C162.286 35.2022 160.482 32.3795 158.126 30.0068V30.0477ZM151.282 55.534C150.647 57.3954 149.725 58.9909 148.536 60.3409C147.348 61.6909 145.893 62.7136 144.213 63.4295C142.533 64.1454 140.648 64.4931 138.558 64.4931H130.054C129.726 64.4931 129.48 64.2272 129.48 63.9204V34.7113C129.48 34.3841 129.747 34.1386 130.054 34.1386H138.558C140.648 34.1386 142.533 34.4863 144.213 35.2022C145.893 35.9181 147.327 36.9409 148.536 38.2909C149.725 39.6409 150.647 41.2363 151.282 43.0977C151.917 44.9591 152.245 47.025 152.245 49.3159C152.245 51.6068 151.917 53.6727 151.282 55.534Z" fill="black"/>
<path d="M197.529 75.9068C193.636 75.9068 190.009 75.2318 186.731 73.9023C183.473 72.5727 180.604 70.7113 178.227 68.3386C175.85 65.9659 173.965 63.1022 172.654 59.85C171.322 56.5977 170.646 52.9977 170.646 49.1523C170.646 45.3068 171.322 41.6454 172.654 38.3727C173.985 35.1204 175.85 32.2363 178.227 29.8432C180.604 27.45 183.473 25.5682 186.731 24.2386C189.989 22.9091 193.636 22.2341 197.529 22.2341C201.422 22.2341 204.967 22.9091 208.205 24.2386C211.442 25.5682 214.29 27.45 216.667 29.8432C219.044 32.2363 220.929 35.1204 222.241 38.3727C223.573 41.6454 224.249 45.2659 224.249 49.1523C224.249 53.0386 223.573 56.5772 222.241 59.8091C220.909 63.0409 219.044 65.9045 216.667 68.2977C214.29 70.6909 211.442 72.5727 208.205 73.9023C204.967 75.2318 201.381 75.9068 197.529 75.9068ZM197.529 32.8091C195.337 32.8091 193.267 33.2182 191.423 34.0159C189.558 34.8341 187.919 35.9795 186.546 37.4727C185.173 38.9454 184.108 40.7045 183.35 42.6682C182.612 44.6318 182.223 46.8204 182.223 49.1523C182.223 52.2409 182.878 55.0227 184.19 57.4568C185.501 59.8909 187.325 61.8341 189.62 63.2454C191.915 64.6363 194.578 65.3523 197.529 65.3523C199.722 65.3523 201.771 64.9432 203.615 64.125C205.438 63.3272 207.078 62.1818 208.451 60.7295C209.823 59.2773 210.889 57.5386 211.647 55.5545C212.405 53.5704 212.774 51.4227 212.774 49.1523C212.774 46.8818 212.405 44.6318 211.647 42.6682C210.889 40.6841 209.823 38.9454 208.451 37.4727C207.078 36 205.459 34.8341 203.615 34.0363C201.771 33.2182 199.742 32.8091 197.529 32.8091Z" fill="black"/>
<path d="M230.827 75.1295C230.499 75.1295 230.253 74.8636 230.253 74.5568V24.0545C230.253 23.7273 230.519 23.4818 230.827 23.4818H252.526C255.723 23.4818 258.612 24.2182 261.112 25.65C263.612 27.1023 265.62 29.0864 267.054 31.5614C268.488 34.0364 269.226 36.9 269.226 40.0909C269.226 43.2818 268.488 46.2886 267.033 48.9068C265.579 51.5045 263.591 53.5704 261.091 55.0636C258.591 56.5568 255.702 57.3136 252.526 57.3136H242.158C241.83 57.3136 241.584 57.5795 241.584 57.8864V74.5773C241.584 74.9045 241.318 75.15 241.01 75.15H230.847L230.827 75.1295ZM242.015 33.2591C241.687 33.2591 241.441 33.525 241.441 33.8318V46.9227C241.441 47.25 241.707 47.4954 242.015 47.4954H250.784C252.055 47.4954 253.223 47.1886 254.247 46.575C255.272 45.9614 256.092 45.1023 256.727 44.0182C257.362 42.9136 257.69 41.6659 257.69 40.2955C257.69 38.925 257.362 37.6159 256.727 36.5727C256.092 35.5295 255.251 34.7114 254.247 34.1386C253.223 33.5659 252.075 33.2591 250.805 33.2591H242.035H242.015Z" fill="black"/>
<path d="M276.131 75.1295C275.804 75.1295 275.558 74.8636 275.558 74.5568V24.0545C275.558 23.7273 275.824 23.4818 276.131 23.4818H297.831C301.027 23.4818 303.917 24.2182 306.416 25.65C308.916 27.1023 310.924 29.0864 312.359 31.5614C313.793 34.0364 314.531 36.9 314.531 40.0909C314.531 43.2818 313.793 46.2886 312.338 48.9068C310.883 51.5045 308.896 53.5704 306.396 55.0636C303.896 56.5568 301.007 57.3136 297.831 57.3136H287.463C287.135 57.3136 286.889 57.5795 286.889 57.8864V74.5773C286.889 74.9045 286.623 75.15 286.315 75.15H276.152L276.131 75.1295ZM287.319 33.2591C286.991 33.2591 286.745 33.525 286.745 33.8318V46.9227C286.745 47.25 287.012 47.4954 287.319 47.4954H296.089C297.36 47.4954 298.528 47.1886 299.552 46.575C300.556 45.9614 301.396 45.1023 302.031 44.0182C302.667 42.9136 302.994 41.6659 302.994 40.2955C302.994 38.925 302.667 37.6159 302.031 36.5727C301.396 35.5295 300.556 34.7114 299.552 34.1386C298.528 33.5659 297.38 33.2591 296.11 33.2591H287.34H287.319Z" fill="black"/>
<path d="M321.436 75.1295C321.108 75.1295 320.862 74.8636 320.862 74.5568V24.0545C320.862 23.7273 321.129 23.4818 321.436 23.4818H355.819C356.147 23.4818 356.393 23.7477 356.393 24.0545V32.2977C356.393 32.625 356.127 32.8704 355.819 32.8704H332.46C332.132 32.8704 331.886 33.1364 331.886 33.4432V43.7932C331.886 44.1204 332.153 44.3659 332.46 44.3659H352.459C352.787 44.3659 353.032 44.6318 353.032 44.9386V52.7318C353.032 53.0591 352.766 53.3045 352.459 53.3045H332.46C332.132 53.3045 331.886 53.5704 331.886 53.8773V65.1273C331.886 65.4545 332.153 65.7 332.46 65.7H356.659C356.987 65.7 357.233 65.9659 357.233 66.2727V74.5159C357.233 74.8432 356.967 75.0886 356.659 75.0886H321.436V75.1295Z" fill="black"/>
<path d="M366.413 75.1295C366.085 75.1295 365.839 74.8636 365.839 74.5568V24.0545C365.839 23.7273 366.105 23.4818 366.413 23.4818H376.576C376.904 23.4818 377.15 23.7477 377.15 24.0545V64.7795C377.15 65.1068 377.416 65.3523 377.723 65.3523H400.406C400.734 65.3523 400.98 65.6182 400.98 65.925V74.5568C400.98 74.8841 400.714 75.1295 400.406 75.1295H366.392H366.413Z" fill="black"/>
<path d="M41.6574 0C41.1246 0 40.6943 0.429545 40.6943 0.961364V8.26364C40.6943 8.69318 40.8992 9.06136 41.2271 9.28636C41.6779 9.59318 42.1082 9.92045 42.5385 10.2477C53.6239 18.5932 59.4842 30.6 59.4842 45C59.4842 59.4 52.7838 72.4091 41.2271 80.6114C40.8992 80.8364 40.6943 81.225 40.6943 81.6136V89.0386C40.6943 89.5705 41.1246 90 41.6574 90C71.9629 89.6727 96.3876 73.9841 96.3876 45C96.3876 16.0159 71.9629 0.327273 41.6574 0ZM81.532 35.7341C80.9788 38.1477 79.0321 40.0909 76.6143 40.6227C71.799 41.6864 67.6394 37.5341 68.7049 32.7273C69.2377 30.3136 71.1843 28.3705 73.6021 27.8182C78.3969 26.7545 82.577 30.9273 81.532 35.7341Z" fill="black"/>
<path d="M38.4812 10.8409C34.1782 7.75226 29.199 5.31817 23.7485 3.53863C23.1953 3.35454 22.642 3.1909 22.0888 3.04772C21.8429 2.9659 21.597 2.88408 21.3511 2.82272C20.8389 2.65908 20.3061 2.5159 19.7734 2.39317C19.4865 2.31136 19.1996 2.22954 18.9128 2.16817C18.462 2.04545 18.0112 1.94317 17.5399 1.8409C17.1506 1.73863 16.7408 1.65681 16.3309 1.57499C15.9826 1.51363 15.6138 1.43181 15.2654 1.37045C14.7532 1.26817 14.2204 1.1659 13.6877 1.08408C13.4623 1.04317 13.2369 1.00226 13.032 0.98181C12.3763 0.879538 11.7206 0.777265 11.0444 0.695447C10.8805 0.674992 10.696 0.654538 10.5321 0.634083C9.79446 0.53181 9.01582 0.449992 8.27816 0.388629C8.23718 0.388629 8.1962 0.388629 8.15522 0.388629C7.27413 0.30681 6.41352 0.245447 5.53243 0.184083C4.63085 0.12272 3.70877 0.0818104 2.7867 0.0613559C2.7867 0.0613559 2.76621 0.0613559 2.74572 0.0613559C2.15149 0.0409013 1.55726 0.0204468 0.942548 0.0204468C0.901567 0.0204468 0.860586 0.0204468 0.819605 0.0204468C0.348322 0.0818104 -0.0205078 0.490901 -0.0205078 0.961356V89.0591C-0.0205078 89.5295 0.348322 89.9386 0.819605 90C0.860586 90 0.901567 90 0.942548 90C1.35236 90 1.76217 90 2.15149 89.9591C2.47934 89.9591 2.80719 89.9591 3.13504 89.9182C3.6473 89.9182 4.18005 89.8773 4.69232 89.8364C5.08164 89.8364 5.49145 89.7954 5.88077 89.775C6.27009 89.7545 6.6799 89.7341 7.06922 89.6932C7.62247 89.6523 8.17571 89.6114 8.68797 89.55C8.95435 89.5295 9.22073 89.4886 9.46662 89.4682C10.1223 89.4068 10.7985 89.3045 11.4542 89.2227C11.5362 89.2227 11.6386 89.2023 11.7206 89.1818C12.4787 89.0795 13.2369 88.9568 13.995 88.8341C14.159 88.8136 14.3434 88.7727 14.5073 88.7523C15.1015 88.65 15.6957 88.5273 16.29 88.4045C16.6998 88.3227 17.1096 88.2409 17.4989 88.1386C17.9497 88.0364 18.4005 87.9341 18.8718 87.8114C19.1586 87.75 19.4455 87.6886 19.7324 87.6068C20.2446 87.4841 20.7774 87.3204 21.2897 87.1773C22.0068 86.9727 22.724 86.7477 23.4412 86.5227C24.0559 86.3182 24.6706 86.1341 25.2648 85.9091C28.5638 84.7432 31.6374 83.3114 34.5061 81.6545C34.9364 81.4091 35.3667 81.1432 35.797 80.8773C36.6986 80.3455 37.5592 79.7523 38.4198 79.1386C49.0339 71.55 55.6318 60.075 55.6318 45C55.6318 29.925 49.0339 18.4091 38.4198 10.8409H38.4812ZM28.0106 75.3136C27.15 75.7432 26.4123 76.0909 25.6951 76.3977C25.0804 76.6841 24.4452 76.9295 23.81 77.175C23.4412 77.3386 23.0518 77.4614 22.6625 77.6045C22.0068 77.85 21.3306 78.075 20.634 78.3C20.2446 78.4227 19.8553 78.5454 19.425 78.6682C19.0357 78.7704 18.6464 78.8932 18.2366 79.0159C17.8677 79.1182 17.4784 79.2204 17.0891 79.3227C16.5973 79.4454 16.1056 79.5682 15.5728 79.6705C15.163 79.7727 14.7737 79.8545 14.3024 79.9364C13.9336 80.0182 13.5647 80.1 13.1549 80.1614C12.6836 80.2432 12.2123 80.325 11.7206 80.4068C10.9419 80.5295 10.1428 80.6523 9.32318 80.7545C9.13877 80.7954 8.93386 80.8159 8.70847 80.8159V9.16363H8.72896C8.91337 9.18408 9.11828 9.20454 9.36416 9.24545C9.85594 9.28636 10.3682 9.36817 10.9214 9.44999C11.2288 9.4909 11.5362 9.55226 11.8845 9.61363C12.1304 9.65454 12.3763 9.69545 12.6222 9.73636C13.0934 9.81817 13.5647 9.89999 14.0565 10.0227C14.5688 10.1045 15.081 10.2273 15.5728 10.3295C16.3105 10.4932 17.0276 10.6773 17.7448 10.8409C18.1956 10.9636 18.6464 11.0864 19.1382 11.2295C19.6299 11.3727 20.1217 11.5159 20.7159 11.7C20.7569 11.7 20.7979 11.7204 20.8389 11.7409L20.9413 11.7818C21.4126 11.925 21.8634 12.0886 22.3142 12.2523L23.769 12.7841C23.769 12.7841 23.8715 12.825 23.9739 12.8659C24.4452 13.05 24.896 13.2341 25.3673 13.4386C26.2689 13.8273 27.2319 14.2773 28.236 14.7682C30.0801 15.6886 31.8218 16.7523 33.4406 17.8977C42.4564 24.3409 47.0053 33.4636 47.0053 45C47.0053 56.5364 42.4359 65.6386 33.4201 72.0818C31.8013 73.2477 29.9777 74.3318 28.0311 75.3136H28.0106Z" fill="black"/>
<path d="M36.8424 34.2204C36.8424 37.8409 33.8918 40.7864 30.265 40.7864C26.6381 40.7864 23.6875 37.8614 23.6875 34.2204C23.6875 30.5795 26.6381 27.6545 30.265 27.6545C33.8918 27.6545 36.8424 30.6 36.8424 34.2204Z" fill="black"/>
</g>
<defs>
<clipPath id="clip0_325_2">
<rect width="401" height="90" fill="white"/>
</clipPath>
</defs>
</svg>
